HIERARCHY
ROOT SpineBase
{
  OFFSET 0.000000 0.000000 0.000000
  CHANNELS 6 Xposition Yposition Zposition Zrotation Xrotation Yrotation
  JOINT SpineMid
  {
    OFFSET 0.000000 32.318876 0.000000
    CHANNELS 3 Zrotation Xrotation Yrotation
    JOINT SpineShoulder
    {
      OFFSET -0.365537 24.040199 -0.895280
      CHANNELS 3 Zrotation Xrotation Yrotation
      JOINT Neck
      {
        OFFSET -0.206852 7.952197 -0.631488
        CHANNELS 3 Zrotation Xrotation Yrotation
        JOINT Head
        {
          OFFSET -5.430244 14.194303 -0.314920
          CHANNELS 3 Zrotation Xrotation Yrotation
          End Site
          {
            OFFSET 0 0 0
          }
        }
      }
      JOINT ShoulderLeft
      {
        OFFSET -14.052625 -2.410043 12.674421
        CHANNELS 3 Zrotation Xrotation Yrotation
        JOINT ElbowLeft
        {
          OFFSET -2.275895 -27.351764 6.139724
          CHANNELS 3 Zrotation Xrotation Yrotation
          JOINT WristLeft
          {
            OFFSET -1.750548 -26.194528 0.168407
            CHANNELS 3 Zrotation Xrotation Yrotation
            JOINT HandLeft
            {
              OFFSET 0.145306 -7.966097 0.429755
              CHANNELS 3 Zrotation Xrotation Yrotation
              JOINT HandTipLeft
              {
                OFFSET 1.630279 -6.899324 -0.121271
                CHANNELS 3 Zrotation Xrotation Yrotation
                End Site
                {
                  OFFSET 0 0 0
                }
              }
              JOINT ThumbLeft
              {
                OFFSET 2.581034 -0.699690 -1.980787
                CHANNELS 3 Zrotation Xrotation Yrotation
                End Site
                {
                  OFFSET 0 0 0
                }
              }
            }
          }
        }
      }
      JOINT ShoulderRight
      {
        OFFSET 12.836242 -2.428781 -12.567166
        CHANNELS 3 Zrotation Xrotation Yrotation
        JOINT ElbowRight
        {
          OFFSET 7.478437 -27.153909 -4.463650
          CHANNELS 3 Zrotation Xrotation Yrotation
          JOINT WristRight
          {
            OFFSET -0.796861 -23.730342 -2.170630
            CHANNELS 3 Zrotation Xrotation Yrotation
            JOINT HandRight
            {
              OFFSET -0.170963 -9.005700 0.491988
              CHANNELS 3 Zrotation Xrotation Yrotation
              JOINT HandTipRight
              {
                OFFSET 0.072579 -7.294421 -0.396554
                CHANNELS 3 Zrotation Xrotation Yrotation
                End Site
                {
                  OFFSET 0 0 0
                }
              }
              JOINT ThumbRight
              {
                OFFSET 2.662304 0.147074 -2.707238
                CHANNELS 3 Zrotation Xrotation Yrotation
                End Site
                {
                  OFFSET 0 0 0
                }
              }
            }
          }
        }
      }
    }
  }
  JOINT HipLeft
  {
    OFFSET -6.377650 0.582082 1.445446
    CHANNELS 3 Zrotation Xrotation Yrotation
    JOINT KneeLeft
    {
      OFFSET 3.840785 -40.928761 9.092387
      CHANNELS 3 Zrotation Xrotation Yrotation
      JOINT AnkleLeft
      {
        OFFSET 13.639688 -36.385987 7.298736
        CHANNELS 3 Zrotation Xrotation Yrotation
        JOINT FootLeft
        {
          OFFSET -3.517260 -5.187723 -10.489368
          CHANNELS 3 Zrotation Xrotation Yrotation
          End Site
          {
            OFFSET 0 0 0
          }
        }
      }
    }
  }
  JOINT HipRight
  {
    OFFSET 5.439853 1.955582 -8.565761
    CHANNELS 3 Zrotation Xrotation Yrotation
    JOINT KneeRight
    {
      OFFSET 6.313467 -36.350396 0.155728
      CHANNELS 3 Zrotation Xrotation Yrotation
      JOINT AnkleRight
      {
        OFFSET 6.509433 -40.860891 10.842350
        CHANNELS 3 Zrotation Xrotation Yrotation
        JOINT FootRight
        {
          OFFSET -5.212162 -6.532463 -5.807188
          CHANNELS 3 Zrotation Xrotation Yrotation
          End Site
          {
            OFFSET 0 0 0
          }
        }
      }
    }
  }
}
MOTION
Frames: 9
Frame Time: 0.033333
35.618849 86.987098 269.549602 -0.000000 0.000000 40.269627 0.000000 -0.000000 -40.269627 -0.000000 0.000000 0.000000 -0.000000 0.000000 0.000000 0.000000 0.000000 0.000000 -0.000000 0.000000 0.000000 -0.000000 0.000000 0.000000 -0.000000 0.000000 0.000000 -0.000000 0.000000 0.000000 0.000000 0.000000 0.000000 0.000000 0.000000 0.000000 -0.000000 0.000000 0.000000 -0.000000 0.000000 0.000000 -0.000000 0.000000 0.000000 -0.000000 0.000000 0.000000 0.000000 0.000000 0.000000 0.000000 0.000000 0.000000 0.000000 -0.000000 -40.269627 -0.000000 0.000000 0.000000 -0.000000 0.000000 0.000000 0.000000 0.000000 0.000000 0.000000 -0.000000 -40.269627 -0.000000 0.000000 0.000000 -0.000000 0.000000 0.000000 0.000000 0.000000 0.000000
35.615138 86.988043 269.510354 0.252839 -0.024893 40.216285 -0.176999 0.182260 -40.215948 -0.000000 0.000000 0.000000 -0.000000 0.000000 0.000000 0.000000 0.000000 0.000000 0.320003 0.969379 -0.011562 0.092569 -3.183536 0.171751 -0.406029 2.215252 -0.142805 -1.786724 1.670461 0.453762 0.000000 0.000000 0.000000 0.000000 0.000000 0.000000 -0.000000 0.000000 0.000000 -0.000000 0.000000 0.000000 -1.915849 1.451008 -0.107999 1.919192 -1.446583 0.156493 0.000000 0.000000 0.000000 0.000000 0.000000 0.000000 -0.176999 0.182260 -40.215948 -0.000000 0.000000 0.000000 4.583770 -8.227843 -4.053276 0.000000 0.000000 0.000000 -0.176999 0.182260 -40.215948 -0.000000 0.000000 0.000000 -4.996588 8.033185 -1.480334 0.000000 0.000000 0.000000
35.571123 86.984669 269.474199 0.455129 -0.043336 40.169442 -0.319833 0.326694 -40.168358 -0.000000 0.000000 0.000000 -0.000000 0.000000 0.000000 0.000000 0.000000 0.000000 0.622124 1.966145 -0.034790 0.185876 -6.163581 0.356593 -0.782687 4.201516 -0.257172 -3.256899 3.114556 0.887486 0.000000 0.000000 0.000000 0.000000 0.000000 0.000000 -0.000000 0.000000 0.000000 -0.000000 0.000000 0.000000 -3.611722 2.679153 -0.163872 4.239403 -3.472144 0.324316 0.000000 0.000000 0.000000 0.000000 0.000000 0.000000 -0.319833 0.326694 -40.168358 -0.000000 0.000000 0.000000 8.588510 -16.525874 -7.413205 0.000000 0.000000 0.000000 -0.319833 0.326694 -40.168358 -0.000000 0.000000 0.000000 -8.316361 13.502911 -2.090161 0.000000 0.000000 0.000000
35.486805 86.976978 269.441138 0.606937 -0.055337 40.128929 -0.428406 0.433482 -40.127015 -0.000000 0.000000 0.000000 -0.454356 0.644429 0.239406 0.000000 0.000000 0.000000 0.906937 2.990637 -0.069444 0.277889 -8.930023 0.550109 -1.129944 5.947885 -0.346294 -4.409301 4.343721 1.282495 0.000000 0.000000 0.000000 0.000000 0.000000 0.000000 0.399976 -0.761432 -0.272836 -0.403632 0.759500 0.278169 -5.089945 3.683414 -0.184594 6.012932 -4.644221 0.518333 0.000000 0.000000 0.000000 0.000000 0.000000 0.000000 -0.428406 0.433482 -40.127015 -0.000000 0.000000 0.000000 11.764291 -23.831165 -9.876791 0.000000 0.000000 0.000000 -0.428406 0.433482 -40.127015 -0.000000 0.000000 0.000000 -10.538311 17.153022 -2.318784 0.000000 0.000000 0.000000
35.362182 86.964968 269.411169 0.708336 -0.060905 40.094630 -0.502653 0.502788 -40.092048 -0.000000 0.000000 0.000000 -0.475730 0.771596 0.288339 0.000000 0.000000 0.000000 1.174993 4.043172 -0.115290 0.366604 -11.477753 0.748043 -1.447892 7.448487 -0.413356 -5.238558 5.367919 1.623335 0.000000 0.000000 0.000000 0.000000 0.000000 0.000000 0.437572 -0.906833 -0.318301 -0.442658 0.904361 0.325257 -6.353618 4.465019 -0.184518 7.557289 -5.452510 0.706563 0.000000 0.000000 0.000000 0.000000 0.000000 0.000000 -0.502653 0.502788 -40.092048 -0.000000 0.000000 0.000000 14.034678 -29.405855 -11.445566 0.000000 0.000000 0.000000 -0.502653 0.502788 -40.092048 -0.000000 0.000000 0.000000 -11.988915 19.508292 -2.386943 0.000000 0.000000 0.000000
35.197256 86.948640 269.384293 0.759397 -0.060050 40.066488 -0.542531 0.534751 -40.063558 -0.000000 0.000000 0.000000 -0.431635 0.855007 0.321261 0.000000 0.000000 0.000000 1.426810 5.124031 -0.172103 0.450091 -13.805752 0.946371 -1.736715 8.701595 -0.461417 -5.733295 6.193871 1.896794 0.000000 0.000000 0.000000 0.000000 0.000000 0.000000 0.428046 -0.998623 -0.341808 -0.434061 0.996024 0.349311 -7.405984 5.026095 -0.175344 8.873977 -5.905374 0.872988 0.000000 0.000000 0.000000 0.000000 0.000000 0.000000 -0.542531 0.534751 -40.063558 -0.000000 0.000000 0.000000 15.421634 -32.945930 -12.231114 0.000000 0.000000 0.000000 -0.542531 0.534751 -40.063558 -0.000000 0.000000 0.000000 -12.851559 20.889976 -2.394882 0.000000 0.000000 0.000000
34.964760 86.938119 269.369990 0.718388 -0.046891 40.085198 -0.519451 0.498456 -40.082645 -0.000000 0.000000 0.000000 -0.226082 0.815409 0.308826 0.000000 0.000000 0.000000 1.654684 6.479048 -0.265585 0.623028 -16.568619 1.223204 -3.309627 13.295769 -0.264271 -4.708475 4.188022 1.964872 0.000000 0.000000 0.000000 0.000000 0.000000 0.000000 0.336800 -1.009956 -0.330765 -0.342677 1.007978 0.336748 -8.296581 5.137721 -0.178954 10.219870 -5.284305 0.986193 0.000000 0.000000 0.000000 0.000000 0.000000 0.000000 -0.519451 0.498456 -40.082645 -0.000000 0.000000 0.000000 13.900690 -31.101393 -7.707469 0.000000 0.000000 0.000000 -0.519451 0.498456 -40.082645 -0.000000 0.000000 0.000000 -11.761661 18.975278 -2.286757 0.000000 0.000000 0.000000
34.705599 86.913927 269.364347 0.647980 -0.028128 40.050327 -0.477926 0.438475 -40.048339 -0.000000 0.000000 0.000000 -0.122278 0.749947 0.285152 0.000000 0.000000 0.000000 2.020576 8.086680 -0.369637 0.441316 -19.155353 1.419007 -4.757530 14.785167 -0.037366 -2.802998 4.182517 2.150090 0.000000 0.000000 0.000000 0.000000 0.000000 0.000000 0.223945 -0.934475 -0.292590 -0.228745 0.933312 0.296279 -9.024538 5.163915 -0.184517 11.571486 -5.341913 1.083541 0.000000 0.000000 0.000000 0.000000 0.000000 0.000000 -0.477926 0.438475 -40.048339 0.814819 0.151214 0.218533 12.625243 -30.163237 -8.331527 0.000000 0.000000 0.000000 -0.477926 0.438475 -40.048339 -0.000000 0.000000 0.000000 -11.766015 18.986915 -2.289504 0.000000 0.000000 0.000000
34.421862 86.871527 269.349549 0.572914 -0.020337 40.016694 -0.425700 0.383961 -40.015165 -0.000000 0.000000 0.000000 -0.000000 0.000000 0.000000 0.000000 0.000000 0.000000 2.178945 8.818489 -0.422057 0.557151 -19.700584 1.503471 -6.352564 14.343331 0.199183 -0.147671 4.202691 2.175484 0.000000 0.000000 0.000000 0.000000 0.000000 0.000000 0.101645 -0.873449 -0.256753 -0.105570 0.872983 0.258332 -9.305879 4.974275 -0.199061 11.872863 -4.530129 1.076127 0.000000 0.000000 0.000000 0.000000 0.000000 0.000000 -0.425700 0.383961 -40.015165 0.960604 0.073144 0.218840 12.129168 -29.216481 -8.290025 0.000000 0.000000 0.000000 0.186756 -0.427586 -40.050188 -0.991025 0.227112 0.037220 -11.756565 19.009877 -2.310798 0.000000 0.000000 0.000000
